<svg  viewBox="0 0 80 20" fill="none" xmlns="http://www.w3.org/2000/svg">
<g clip-path="url(#clip0_183_2005)">
<path d="M20.0737 20.0001C19.8712 20.0001 19.6963 19.926 19.549 19.7779C19.4018 19.6297 19.3281 19.4538 19.3281 19.2501V1.30566C19.3281 1.10196 19.4018 0.926034 19.549 0.777886C19.6963 0.629738 19.8712 0.555664 20.0737 0.555664H25.7071C25.9096 0.555664 26.0845 0.629738 26.2318 0.777886C26.3791 0.926034 26.4527 1.10196 26.4527 1.30566V19.2501C26.4527 19.4538 26.3791 19.6297 26.2318 19.7779C26.0845 19.926 25.9096 20.0001 25.7071 20.0001H20.0737Z" fill="#232321"/>
<path d="M0.745599 19.7223C0.543091 19.7223 0.368197 19.6482 0.220918 19.5001C0.0736394 19.3519 0 19.176 0 18.9723V1.02783C0 0.824128 0.0736394 0.648202 0.220918 0.500054C0.368197 0.351906 0.543091 0.277832 0.745599 0.277832H6.02002C6.22253 0.277832 6.39742 0.351906 6.5447 0.500054C6.69198 0.648202 6.76562 0.824128 6.76562 1.02783V6.52783L9.88609 0.888943C9.97814 0.740795 10.1101 0.601906 10.288 0.472276C10.4629 0.342647 10.6961 0.277832 10.9907 0.277832H17.0935C17.2592 0.277832 17.4004 0.33956 17.5231 0.456844C17.6428 0.577215 17.7011 0.71919 17.7011 0.888943C17.7011 1.00005 17.6735 1.10191 17.6182 1.1945L12.6476 9.58339L18.0877 18.8056C18.1429 18.8797 18.1705 18.9815 18.1705 19.1112C18.1705 19.2778 18.1092 19.4229 17.9926 19.5433C17.8729 19.6636 17.7318 19.7223 17.563 19.7223H11.2668C10.8986 19.7223 10.6256 19.6359 10.4537 19.4568C10.2788 19.2809 10.1714 19.1575 10.1346 19.0834L6.76562 13.0278V18.9723C6.76562 19.176 6.69198 19.3519 6.5447 19.5001C6.39742 19.6482 6.22253 19.7223 6.02002 19.7223H0.745599Z" fill="#232321"/>
<path d="M36.7649 20C34.9975 20 33.4327 19.7407 32.0704 19.2222C30.7081 18.7037 29.6249 17.8889 28.8241 16.7778C28.0233 15.6667 27.5845 14.2315 27.5139 12.4722C27.4955 11.713 27.4863 10.8981 27.4863 10.0278C27.4863 9.15741 27.4955 8.32407 27.5139 7.52778C27.5876 5.80556 28.0325 4.38889 28.8517 3.27778C29.671 2.16667 30.7663 1.34259 32.1379 0.805556C33.5094 0.268518 35.0528 0 36.7649 0C37.9431 0 39.0784 0.135802 40.1769 0.401235C41.2722 0.669753 42.2602 1.09259 43.1439 1.66667C44.0276 2.24074 44.7302 2.97839 45.2549 3.87346C45.7796 4.77161 46.0496 5.85185 46.0711 7.11111C46.0711 7.27778 46.0097 7.42284 45.8931 7.54321C45.7734 7.66358 45.6323 7.72222 45.4635 7.72222H39.8301C39.5356 7.72222 39.3177 7.66358 39.1797 7.54321C39.0416 7.42284 38.9188 7.21605 38.8084 6.91667C38.6059 6.32407 38.3297 5.92593 37.9799 5.72222C37.6302 5.51852 37.2159 5.41667 36.7373 5.41667C36.1298 5.41667 35.645 5.58025 35.286 5.90432C34.927 6.22839 34.7275 6.8179 34.6907 7.66667C34.6355 9.18519 34.6355 10.7407 34.6907 12.3333C34.7275 13.1852 34.927 13.7747 35.286 14.0957C35.645 14.4198 36.1298 14.5833 36.7373 14.5833C37.2159 14.5833 37.6332 14.4722 37.9922 14.25C38.3512 14.0278 38.6212 13.6389 38.8084 13.0833C38.9004 12.7685 39.0201 12.5556 39.1674 12.4444C39.3147 12.3333 39.5356 12.2778 39.8301 12.2778H45.4635C45.6292 12.2778 45.7704 12.3395 45.8931 12.4568C46.0128 12.5772 46.0711 12.7191 46.0711 12.8889C46.0527 14.1481 45.7827 15.2284 45.2549 16.1265C44.7302 17.0247 44.0276 17.7623 43.1439 18.3333C42.2602 18.9074 41.2692 19.3302 40.1769 19.5957C39.0784 19.8642 37.9431 20 36.7649 20Z" fill="#232321"/>
<path d="M62.3846 18.8056L56.9444 9.58339L61.9151 1.1945C61.9703 1.10191 61.9979 1.00005 61.9979 0.888943C61.9979 0.722276 61.9396 0.580301 61.82 0.459931C61.7003 0.33956 61.5561 0.277832 61.3904 0.277832H55.2876C54.993 0.277832 54.7598 0.342647 54.5849 0.472276C54.41 0.601906 54.275 0.740795 54.183 0.888943L51.4215 5.87968L51.0625 6.52783V1.02783C51.0625 0.824128 50.9889 0.648202 50.8416 0.500054C50.6943 0.351906 50.5194 0.277832 50.3169 0.277832H45.0425C44.84 0.277832 44.6651 0.351906 44.5178 0.500054C44.4994 0.521659 44.481 0.540178 44.4626 0.561783C44.4442 0.583388 44.4288 0.604992 44.4165 0.626597C44.4012 0.648202 44.3889 0.672894 44.3767 0.694499C44.3644 0.71919 44.3552 0.740795 44.346 0.765486C45.2971 1.42289 46.0765 2.25623 46.6564 3.25005C47.2854 4.3303 47.6168 5.62351 47.6383 7.09265C47.6383 7.60191 47.448 8.06487 47.1013 8.41672C46.7515 8.76549 46.2913 8.95684 45.8034 8.95684H44.2969V11.0433H45.8034C46.2913 11.0433 46.7515 11.2346 47.0982 11.5834C47.448 11.9383 47.6383 12.4013 47.6383 12.8889C47.6168 14.3766 47.2854 15.6698 46.6564 16.7501C46.0765 17.7439 45.2971 18.5772 44.346 19.2346C44.3552 19.2593 44.3644 19.284 44.3767 19.3056C44.4012 19.3519 44.4288 19.3982 44.4626 19.4383C44.481 19.4599 44.4994 19.4784 44.5178 19.5001C44.6651 19.6482 44.84 19.7223 45.0425 19.7223H50.3169C50.5194 19.7223 50.6943 19.6482 50.8416 19.5001C50.9889 19.3519 51.0625 19.176 51.0625 18.9723V13.0278L51.4215 13.6729L54.4315 19.0834C54.4683 19.1575 54.5757 19.284 54.7506 19.4599C54.9255 19.6359 55.1955 19.7223 55.5637 19.7223H61.8599C62.0256 19.7223 62.1698 19.6636 62.2894 19.5433C62.4091 19.4229 62.4674 19.2778 62.4674 19.1112C62.4674 18.9815 62.4398 18.8797 62.3846 18.8056Z" fill="#232321"/>
<path d="M70.8323 20C68.7888 20 67.1043 19.7222 65.7788 19.1667C64.4533 18.6111 63.4592 17.8796 62.7964 16.9722C62.1337 16.0648 61.7839 15.1019 61.7471 14.0833C61.7471 13.9167 61.8054 13.7747 61.925 13.6512C62.0447 13.5309 62.1858 13.4722 62.3515 13.4722H67.5983C67.8929 13.4722 68.1169 13.5123 68.2764 13.5957C68.4329 13.679 68.6017 13.7963 68.7888 13.9414C68.9729 14.071 69.1601 14.1883 69.3534 14.287C69.5467 14.3889 69.7676 14.463 70.0162 14.5093C70.2647 14.5556 70.5347 14.5802 70.8323 14.5802C71.4583 14.5802 71.9584 14.5093 72.3358 14.3704C72.7132 14.2315 72.9034 14.0432 72.9034 13.8025C72.9034 13.5802 72.796 13.3951 72.5843 13.2469C72.3726 13.0988 72.0075 12.966 71.492 12.8457C70.9765 12.7253 70.2586 12.608 69.3381 12.5C67.8837 12.2963 66.6226 11.9537 65.5548 11.4722C64.4871 10.9907 63.6617 10.3302 63.0849 9.48457C62.5049 8.64198 62.2165 7.60802 62.2165 6.3858C62.2165 5.12654 62.5694 4.01543 63.2782 3.05247C63.9869 2.08951 64.9719 1.33951 66.2329 0.802469C67.494 0.268518 68.9637 0 70.639 0C72.0198 0 73.244 0.179012 74.3118 0.540123C75.3796 0.901235 76.2816 1.37346 77.018 1.95679C77.7544 2.54012 78.3159 3.16667 78.7025 3.83333C79.0891 4.5 79.2917 5.13889 79.3101 5.75C79.3101 5.91667 79.2487 6.06173 79.1321 6.1821C79.0124 6.30247 78.8774 6.36111 78.7302 6.36111H73.2072C72.9495 6.36111 72.7408 6.32407 72.5874 6.25C72.4309 6.17593 72.2683 6.06481 72.1026 5.91667C72.0106 5.82407 71.8387 5.71914 71.5902 5.59568C71.3417 5.47531 71.0256 5.41667 70.636 5.41667C70.1757 5.41667 69.8382 5.48765 69.6296 5.62654C69.4178 5.76543 69.3104 5.95679 69.3104 6.19444C69.3104 6.36111 69.3933 6.51852 69.559 6.66667C69.7247 6.81482 70.0284 6.94444 70.4703 7.05556C70.9121 7.16667 71.5472 7.27778 72.3757 7.38889C74.2167 7.61111 75.6925 7.96914 76.8094 8.45679C77.9232 8.94753 78.7332 9.60185 79.2395 10.4167C79.7458 11.2315 80.0004 12.2407 80.0004 13.4444C80.0004 14.7963 79.5985 15.963 78.7977 16.9444C77.9968 17.9259 76.9045 18.679 75.5238 19.2068C74.143 19.7346 72.5813 20 70.8323 20Z" fill="#232321"/>
</g>
<defs>
<clipPath id="clip0_183_2005">
<rect width="80" height="20" fill="white"/>
</clipPath>
</defs>
</svg>
